<?xml version="1.0" encoding="iso-8859-1"?>
<!-- Generator: Adobe Illustrator 19.0.0, SVG Export Plug-In . SVG Version: 6.00 Build 0)  -->
<svg version="1.1" id="Capa_1" xmlns="http://www.w3.org/2000/svg" xmlns:xlink="http://www.w3.org/1999/xlink" x="0px" y="0px"
	 viewBox="0 0 512 512" style="enable-background:new 0 0 512 512;" xml:space="preserve">
<g>
	<path style="fill:#136EF1;" d="M442.2,466.936c-3.839,0-7.678-1.464-10.606-4.393L325.528,356.477
		c-5.858-5.858-5.858-15.355,0-21.213c5.857-5.858,15.355-5.858,21.213,0L452.807,441.33c5.858,5.858,5.858,15.355,0,21.213
		C449.878,465.472,446.039,466.936,442.2,466.936z"/>
	<path style="fill:#136EF1;" d="M166.091,191.165c-3.839,0-7.678-1.464-10.606-4.393L49.418,80.705
		c-5.858-5.858-5.858-15.355,0-21.213c5.857-5.857,15.355-5.857,21.213,0l106.066,106.066c5.858,5.858,5.858,15.355,0,21.213
		C173.769,189.7,169.93,191.165,166.091,191.165z"/>
</g>
<path style="fill:#17ACE8;" d="M336.134,512c-43.345,0-84.095-16.879-114.744-47.529L47.5,290.919
	c-63.28-63.28-63.28-166.228-0.01-229.499l23.142-23.142c8.499-8.499,19.8-13.18,31.82-13.18s23.32,4.681,31.819,13.18l63.64,63.64
	c8.5,8.499,13.18,19.8,13.18,31.82s-4.681,23.321-13.18,31.82l-28.926,28.927c-6.439,6.439-9.985,15-9.985,24.106
	s3.546,17.667,9.985,24.106l100.6,100.263c0.006,0.006,0.012,0.012,0.018,0.018c6.439,6.439,15,9.985,24.106,9.985
	s17.667-3.546,24.106-9.985l28.927-28.927c8.499-8.499,19.8-13.18,31.82-13.18s23.32,4.681,31.82,13.18l63.639,63.639
	c17.546,17.546,17.546,46.094,0,63.64l-23.142,23.142C420.228,495.121,379.478,512,336.134,512z M102.451,55.106
	c-3.841,0-7.682,1.462-10.606,4.386L68.703,82.634c-51.573,51.573-51.573,135.489,0,187.062l173.89,173.552
	C267.586,468.241,300.803,482,336.134,482s68.547-13.759,93.531-38.742l23.142-23.142c5.849-5.848,5.849-15.365,0-21.213
	l-63.64-63.639c-2.833-2.833-6.6-4.394-10.606-4.394c-4.007,0-7.773,1.56-10.607,4.394l-28.927,28.927
	c-12.105,12.105-28.199,18.772-45.319,18.772c-17.119,0-33.214-6.667-45.319-18.772l-100.6-100.263
	c-12.123-12.123-18.79-28.218-18.79-45.337s6.667-33.214,18.772-45.319l28.927-28.927c2.833-2.833,4.393-6.6,4.393-10.607
	s-1.56-7.773-4.393-10.606l-63.64-63.64C110.134,56.568,106.292,55.106,102.451,55.106z"/>
<path style="fill:#FEDB41;" d="M316.958,270c-1.932,0-3.881-0.374-5.737-1.142c-5.605-2.322-9.26-7.791-9.26-13.858v-45h-15
	c-24.813,0-45-20.187-45-45V45c0-24.813,20.187-45,45-45h180c24.813,0,45,20.187,45,45v120c0,24.813-20.187,45-45,45h-83.787
	l-55.607,55.607C324.699,268.476,320.862,270,316.958,270z M286.961,30c-8.271,0-15,6.729-15,15v120c0,8.271,6.729,15,15,15h30
	c8.284,0,15,6.716,15,15v23.787l34.394-34.394c2.813-2.813,6.628-4.393,10.606-4.393h90c8.271,0,15-6.729,15-15V45
	c0-8.271-6.729-15-15-15H286.961z"/>
<g>
	<path style="fill:#1689FC;" d="M436.961,90h-120c-8.284,0-15-6.716-15-15s6.716-15,15-15h120c8.284,0,15,6.716,15,15
		S445.246,90,436.961,90z"/>
	<path style="fill:#1689FC;" d="M376.961,150h-60c-8.284,0-15-6.716-15-15s6.716-15,15-15h60c8.284,0,15,6.716,15,15
		S385.246,150,376.961,150z"/>
</g>
<g>
</g>
<g>
</g>
<g>
</g>
<g>
</g>
<g>
</g>
<g>
</g>
<g>
</g>
<g>
</g>
<g>
</g>
<g>
</g>
<g>
</g>
<g>
</g>
<g>
</g>
<g>
</g>
<g>
</g>
</svg>
